<?xml version="1.0" encoding="UTF-8" standalone="no"?>
<!-- Creator: CorelDRAW 2019 (64-Bit) -->

<svg
   xml:space="preserve"
   width="100%"
   height="100%"
   version="1.1"
   shape-rendering="geometricPrecision"
   text-rendering="geometricPrecision"
   image-rendering="optimizeQuality"
   fill-rule="evenodd"
   clip-rule="evenodd"
   viewBox="0 0 4091.27 4091.73"
   id="svg874"
   sodipodi:docname="btc.svg"
   inkscape:version="1.1.1 (3bf5ae0d25, 2021-09-20, custom)"
   xmlns:inkscape="http://www.inkscape.org/namespaces/inkscape"
   xmlns:sodipodi="http://sodipodi.sourceforge.net/DTD/sodipodi-0.dtd"
   xmlns="http://www.w3.org/2000/svg"
   xmlns:svg="http://www.w3.org/2000/svg"><defs
   id="defs878">
   
   
  </defs><sodipodi:namedview
   id="namedview876"
   pagecolor="#505050"
   bordercolor="#ffffff"
   borderopacity="1"
   inkscape:pageshadow="0"
   inkscape:pageopacity="0"
   inkscape:pagecheckerboard="1"
   showgrid="false"
   inkscape:zoom="0.19209479"
   inkscape:cx="2045.865"
   inkscape:cy="2045.865"
   inkscape:window-width="1852"
   inkscape:window-height="994"
   inkscape:window-x="32"
   inkscape:window-y="50"
   inkscape:window-maximized="1"
   inkscape:current-layer="Layer_x0020_1" />
 <g
   id="Layer_x0020_1"
   inkscape:label="Layer 1">
  <metadata
   id="CorelCorpID_0Corel-Layer" />
  <path
   id="path868"
   d="M 2028.8145 0.05859375 C 1118.003 6.9119943 291.71453 626.31023 61.269531 1551.1699 C -212.09047 2647.0899 454.91961 3757.2405 1550.5996 4030.4805 C 2646.7396 4303.7905 3756.8205 3636.7795 4030.0605 2540.7695 L 4030.0508 2540.7695 L 4030.0293 2540.7891 C 4303.2993 1444.7291 3636.3295 334.4607 2540.2695 61.220703 C 2369.0508 18.526953 2197.4832 -1.2105545 2028.8145 0.05859375 z M 1961.6406 712.75 L 2186 768.68945 L 2095.8398 1130.1504 C 2156.0798 1143.9004 2216.6909 1157.7702 2275.7109 1172.4902 L 2365.2207 813.40039 L 2589.7207 869.33984 L 2497.7695 1238.1406 C 2781.2095 1335.7706 2988.4895 1482.1209 2947.7695 1754.3809 L 2947.7793 1754.3594 L 2947.8496 1754.4102 C 2918.3896 1953.7102 2807.9009 2050.1895 2661.2109 2084.0195 C 2862.6109 2188.8795 2965.1007 2349.6809 2867.4707 2628.4609 C 2746.3107 2974.7209 2458.4606 3003.9305 2075.6406 2931.4805 L 1982.75 3303.8105 L 1758.2402 3247.8691 L 1849.9297 2880.5391 C 1791.7297 2866.0791 1732.2795 2850.7394 1671.0195 2834.1094 L 1579.0195 3203.1797 L 1354.7793 3147.2402 L 1447.6797 2774.2109 C 1395.2297 2760.8009 1341.9691 2746.5402 1287.6191 2732.9102 L 995.4707 2660.0801 L 1106.9297 2403.0996 C 1106.9297 2403.0996 1272.3496 2447.0803 1270.0996 2443.8203 C 1333.6596 2459.5603 1361.8607 2418.1102 1372.9707 2390.4902 L 1519.7793 1801.9199 C 1528.0493 1803.8999 1536.0198 1805.9291 1543.5098 1807.7891 C 1534.5498 1804.1891 1526.4299 1801.8908 1520.1699 1800.3008 L 1624.9102 1380.1504 C 1627.6402 1332.4504 1611.1991 1272.2701 1520.2891 1249.5801 C 1523.7991 1247.2301 1357.2402 1209.0508 1357.2402 1209.0508 L 1416.9609 969.26953 L 1726.5508 1046.5801 L 1726.2891 1047.7402 C 1772.8291 1059.3202 1820.8006 1070.3097 1869.6406 1081.4297 L 1961.6406 712.75 z M 2035.3496 1395.2891 L 1923.5801 1843.5 C 2050.3101 1875.09 2440.9795 2003.9198 2504.2695 1750.3398 L 2504.2891 1750.3398 C 2570.1991 1485.8398 2162.0796 1426.8791 2035.3496 1395.2891 z M 1867.1797 2069.7305 L 1743.9004 2563.9297 C 1896.0804 2601.7197 2365.4598 2752.4206 2434.8398 2473.6406 L 2434.8496 2473.6406 C 2507.3496 2182.9006 2019.3497 2107.7205 1867.1797 2069.7305 z "
   style="fill:#d8dee9;fill-opacity:1" />
 </g>
</svg>
