<?xml version="1.0" encoding="UTF-8" standalone="no"?>
<!-- Creator: CorelDRAW 2019 (64-Bit) -->

<svg
   xml:space="preserve"
   width="100%"
   height="100%"
   version="1.1"
   shape-rendering="geometricPrecision"
   text-rendering="geometricPrecision"
   image-rendering="optimizeQuality"
   fill-rule="evenodd"
   clip-rule="evenodd"
   viewBox="0 0 4091.27 4091.73"
   id="svg874"
   sodipodi:docname="lbry.svg"
   inkscape:version="1.1.2 (0a00cf5339, 2022-02-04)"
   xmlns:inkscape="http://www.inkscape.org/namespaces/inkscape"
   xmlns:sodipodi="http://sodipodi.sourceforge.net/DTD/sodipodi-0.dtd"
   xmlns:xlink="http://www.w3.org/1999/xlink"
   xmlns="http://www.w3.org/2000/svg"
   xmlns:svg="http://www.w3.org/2000/svg"><defs
   id="defs878">
   
   
  <linearGradient
   id="linear-gradient"
   x1="796.65002"
   y1="1303.4399"
   x2="256.41"
   y2="1301.64"
   gradientTransform="matrix(8.8,0,0,8.8,-2257.63,-10558.66)"
   gradientUnits="userSpaceOnUse"><stop
     offset="0"
     stop-color="#006149"
     id="stop1015" /><stop
     offset="1"
     stop-color="#2f4246"
     id="stop1017" /></linearGradient><linearGradient
   id="linear-gradient-2"
   x1="796.89001"
   y1="1319.5"
   x2="256.66"
   y2="1317.6899"
   gradientTransform="matrix(8.8,0,0,8.8,-2262.91,-10558.66)"
   xlink:href="#linear-gradient" /></defs><sodipodi:namedview
   id="namedview876"
   pagecolor="#505050"
   bordercolor="#ffffff"
   borderopacity="1"
   inkscape:pageshadow="0"
   inkscape:pageopacity="0"
   inkscape:pagecheckerboard="1"
   showgrid="false"
   inkscape:zoom="0.19209479"
   inkscape:cx="1598.1693"
   inkscape:cy="2064.0851"
   inkscape:window-width="1852"
   inkscape:window-height="995"
   inkscape:window-x="32"
   inkscape:window-y="49"
   inkscape:window-maximized="1"
   inkscape:current-layer="Layer_x0020_1" />
 <g
   id="Layer_x0020_1"
   inkscape:label="Layer 1">
  <metadata
   id="CorelCorpID_0Corel-Layer" />
  <path
   id="path868"
   style="fill:#d8dee9;fill-opacity:1"
   d="M 2028.8145,0.05859375 C 1118.0031,6.9119942 291.71452,626.3102 61.269531,1551.1699 -212.09046,2647.0899 454.91961,3757.2405 1550.5996,4030.4805 c 1096.1399,273.31 2206.2209,-393.701 2479.4609,-1489.711 h -0.01 l -0.021,0.02 C 4303.2991,1444.7287 3636.3295,334.4607 2540.2695,61.220703 2369.0508,18.526954 2197.4832,-1.2105545 2028.8145,0.05859375 Z M 2085.7324,787.55273 h 0.01 c 13.0945,-0.68387 26.1553,1.9464 37.9648,7.64454 l 1516.5371,731.88863 c 26.8582,12.9641 44.0957,40.4189 44.0957,70.2422 v 161.7442 c -0,27.0309 -14.1293,52.297 -37.1582,66.4511 l -1592.2539,978.4727 c -22.7326,13.9668 -51.2206,15.3212 -75.1758,3.5742 L 779.7832,2219.0801 h -0.002 c -27.24745,-13.3649 -44.39255,-41.661 -43.62695,-72 l 2.29297,-90.6231 c 1.40057,-54.9513 63.0968,-92.2717 112.41796,-68.0019 h 0.004 L 2005.3105,2556.7832 3424.209,1685.2949 2099.0352,1046.1133 575.55273,1988.3887 v 349.7734 l 1429.90817,707.3496 1387.959,-851.3594 c -2.8008,-10.2922 -3.5832,-21.2448 -1.791,-32.2988 l 9.1211,-56.2148 c 6.8414,-42.1295 47.9355,-71.5329 90.0176,-64.4063 l 196.2734,33.2617 c 41.6214,7.0573 70.6455,47.5262 63.9844,89.2129 l -32.1035,200.7559 c -6.731,42.0618 -47.6069,71.5422 -89.6426,64.6504 l -56.2246,-9.2246 c -19.2204,-3.155 -35.7275,-13.4887 -47.3731,-27.7442 l -1470.8632,900.6543 c -22.789,13.9524 -51.3295,15.2441 -75.2852,3.4063 L 382.69336,2506.9668 c -26.50265,-13.1009 -43.4355,-40.3581 -43.4375,-69.9219 v -536.8711 c 0.001,-26.9504 14.04419,-52.1506 36.96289,-66.33 L 2048.7734,799.10938 v -0.002 c 11.1508,-6.89602 23.8661,-10.87076 36.959,-11.55469 z" /><g
   id="g4167"
   transform="matrix(1.3028909,0,0,1.3028909,417.25587,865.44583)"
   style="fill:#000000;fill-opacity:1;stroke:none;stroke-width:49.1554;stroke-linejoin:round;stroke-miterlimit:4;stroke-dasharray:none;stroke-opacity:1"
   inkscape:groupmode="layer"><g
     id="g2777"
     style="fill:#000000;fill-opacity:1;stroke:#000000;stroke-width:42.9813;stroke-miterlimit:4;stroke-dasharray:none;stroke-opacity:1"><g
       id="g3341"
       style="fill:#000000;fill-opacity:1;stroke:#000000;stroke-width:42.9813;stroke-linejoin:round;stroke-miterlimit:4;stroke-dasharray:none;stroke-opacity:1"><g
         id="polygon3343"
         transform="matrix(0.76752397,0,0,0.76752397,-320.25388,-664.25042)"
         style="stroke-width:100;stroke-linecap:square;stroke-linejoin:miter"><g
           id="path4719"
           transform="translate(-4.0583081e-6)" /></g></g></g></g>
 </g>
</svg>
