<?xml version="1.0" encoding="UTF-8" standalone="no"?>
<svg
   id="Layer_1"
   data-name="Layer 1"
   viewBox="0 0 3756.09 3756.49"
   version="1.1"
   sodipodi:docname="monero.svg"
   inkscape:version="1.1.1 (3bf5ae0d25, 2021-09-20, custom)"
   xmlns:inkscape="http://www.inkscape.org/namespaces/inkscape"
   xmlns:sodipodi="http://sodipodi.sourceforge.net/DTD/sodipodi-0.dtd"
   xmlns="http://www.w3.org/2000/svg"
   xmlns:svg="http://www.w3.org/2000/svg"
   xmlns:rdf="http://www.w3.org/1999/02/22-rdf-syntax-ns#"
   xmlns:cc="http://creativecommons.org/ns#"
   xmlns:dc="http://purl.org/dc/elements/1.1/">
  <defs
     id="defs876" />
  <sodipodi:namedview
     id="namedview874"
     pagecolor="#505050"
     bordercolor="#ffffff"
     borderopacity="1"
     inkscape:pageshadow="0"
     inkscape:pageopacity="0"
     inkscape:pagecheckerboard="1"
     showgrid="false"
     inkscape:zoom="0.20737444"
     inkscape:cx="1878.245"
     inkscape:cy="1878.245"
     inkscape:window-width="1852"
     inkscape:window-height="994"
     inkscape:window-x="1952"
     inkscape:window-y="50"
     inkscape:window-maximized="1"
     inkscape:current-layer="Layer_1" />
  <title
     id="title867">monero</title>
  <path
     id="_149931032"
     data-name=" 149931032"
     d="M2250,371.75c-1036.89,0-1879.12,842.06-1877.8,1878,0.26,207.26,33.31,406.63,95.34,593.12h561.88V1263L2250,2483.57,3470.52,1263v1579.9h562c62.12-186.48,95-385.85,95.37-593.12C4129.66,1212.76,3287,372,2250,372Z"
     transform="translate(-371.96 -371.75)"
     style="fill:#d8dee9;fill-opacity:1" />
  <path
     id="_149931160"
     data-name=" 149931160"
     d="M1969.3,2764.17l-532.67-532.7v994.14H1029.38l-384.29.07c329.63,540.8,925.35,902.56,1604.91,902.56S3525.31,3766.4,3855,3225.6H3063.25V2231.47l-532.7,532.7-280.61,280.61-280.62-280.61h0Z"
     transform="translate(-371.96 -371.75)"
     style="fill:#d8dee9;fill-opacity:1" />
  <metadata
     id="metadata958">
    <rdf:RDF>
      <cc:Work
         rdf:about="">
        <dc:title>monero</dc:title>
      </cc:Work>
    </rdf:RDF>
  </metadata>
</svg>
